<svg id="Layer_5" enable-background="new 0 0 64 64" height="512" viewBox="0 0 64 64" width="512" xmlns="http://www.w3.org/2000/svg" xmlns:xlink="http://www.w3.org/1999/xlink"><linearGradient id="SVGID_1_" gradientUnits="userSpaceOnUse" x1="31.994" x2="31.994" y1="63" y2="1"><stop offset="0" stop-color="#9f2fff"/><stop offset="1" stop-color="#0bb1d3"/></linearGradient><path d="m49.818 39.943c.117.195.258.376.419.537.542.542 1.254.813 1.966.813s1.424-.271 1.966-.813l.31-.31c1.084-1.084 1.084-2.849 0-3.933-.161-.161-.342-.302-.536-.418l-2.49-1.494c-.899-.539-2.046-.398-2.786.343-.741.741-.882 1.887-.343 2.787zm.264-3.861c.054-.054.126-.082.199-.082.049 0 .1.013.145.04l2.491 1.495c.054.032.104.071.149.116.304.305.304.8 0 1.104l-.31.31c-.305.305-.8.305-1.104 0-.045-.045-.084-.095-.117-.151l-1.494-2.489c-.067-.111-.05-.252.041-.343zm-15.757 15.373 1.493 2.488c.117.195.258.376.419.537.542.542 1.254.813 1.966.813s1.424-.271 1.966-.813l.31-.31c1.084-1.084 1.084-2.849 0-3.933-.161-.161-.342-.302-.536-.418l-2.49-1.494c-.898-.539-2.045-.398-2.786.343s-.881 1.887-.342 2.787zm1.757-1.373c.054-.054.126-.082.199-.082.049 0 .1.013.145.04l2.491 1.495c.054.032.104.071.149.116.304.305.304.8 0 1.104l-.31.31c-.305.305-.8.305-1.104 0-.045-.045-.084-.095-.117-.151l-1.494-2.489c-.067-.111-.05-.252.041-.343zm5.796-4.322c.116.193.256.374.419.538.542.542 1.254.813 1.966.813s1.424-.271 1.966-.813l.31-.31c1.084-1.084 1.084-2.848 0-3.933-.16-.161-.34-.301-.535-.418l-2.491-1.494c-.898-.539-2.045-.398-2.786.343-.741.742-.882 1.887-.343 2.786zm.265-3.861c.091-.091.232-.108.342-.042l2.49 1.494c.055.033.105.072.15.117.305.305.305.8 0 1.104l-.31.31c-.305.304-.801.304-1.103.001-.046-.046-.086-.097-.119-.152l-1.493-2.488c-.066-.111-.049-.252.043-.344zm-16.143 21.101c2.04 0 4.065-.313 6.026-.915 2.138.591 4.338.903 6.542.903 6.256 0 12.513-2.381 17.276-7.144 9.526-9.526 9.526-25.026 0-34.551l-.707-.707-4.725 4.725c-2.491-14.202-12.509-24.311-24.412-24.311-13.785 0-25 13.907-25 31s11.215 31 25 31zm0-2c-4.257 0-8.244-1.471-11.667-4.023.441-.743.92-1.347 1.324-1.853.866-1.082 1.343-1.679 1.343-3.128s-.477-2.045-1.343-3.129c-1.121-1.402-2.657-3.322-2.657-6.876 0-3.553 1.536-5.472 2.66-6.875.864-1.081 1.34-1.676 1.34-3.123 0-1.448-.477-2.044-1.343-3.127-1.121-1.401-2.657-3.321-2.657-6.874s1.536-5.472 2.66-6.875c.864-1.081 1.34-1.676 1.34-3.123 0-1.446-.477-2.042-1.342-3.123-.404-.505-.883-1.108-1.324-1.85 2.624-1.956 5.581-3.27 8.736-3.778.332 3.487 1.987 5.581 3.026 6.879.8 1 .903 1.128.903 1.873s-.103.874-.904 1.875c-1.157 1.446-3.095 3.868-3.095 8.122 0 4.255 1.938 6.677 3.096 8.124.801 1.002.904 1.131.904 1.877 0 .745-.103.874-.904 1.875-1.158 1.447-3.096 3.868-3.096 8.123 0 3.983 1.69 6.348 2.88 7.852l-5.294 5.294.707.707c2.152 2.152 4.618 3.791 7.242 4.971-.84.116-1.686.185-2.535.185zm26.62-35.069c2.821 3.408 4.38 7.647 4.38 12.069 0 10.477-8.523 19-19 19-4.422 0-8.661-1.559-12.069-4.38zm1.81 28.499c-8.509 8.508-22.209 8.739-31 .691l1.083-1.083c3.79 3.194 8.535 4.962 13.487 4.962 11.58 0 21-9.42 21-21 0-4.952-1.768-9.697-4.962-13.487l1.083-1.083c8.048 8.79 7.818 22.491-.691 31zm-5.768-27.368-8.447 8.447c.458-.911.785-2.022.785-3.516 0-2.851-1.179-4.325-2.219-5.625-.956-1.195-1.781-2.226-1.781-4.376 0-2.148.825-3.18 1.781-4.374 1.04-1.3 2.219-2.773 2.219-5.624 0-.85-.113-1.567-.288-2.204 4.086 4.302 7.005 10.35 7.95 17.272zm-12.628-21.107c.365.621.779 1.15 1.185 1.659.956 1.197 1.781 2.23 1.781 4.381 0 2.149-.825 3.18-1.781 4.374-1.04 1.3-2.219 2.773-2.219 5.624s1.179 4.325 2.219 5.625c.956 1.194 1.781 2.226 1.781 4.375 0 2.148-.825 3.18-1.781 4.374-.85 1.062-1.797 2.267-2.108 4.244l-7.808 7.808c-1.064-1.364-2.303-3.234-2.303-6.428 0-3.553 1.536-5.472 2.66-6.875.864-1.081 1.34-1.676 1.34-3.123 0-1.448-.477-2.044-1.343-3.127-1.121-1.401-2.657-3.321-2.657-6.874s1.536-5.472 2.66-6.875c.864-1.081 1.34-1.676 1.34-3.123 0-1.446-.477-2.042-1.342-3.123-1.007-1.257-2.338-2.943-2.602-5.842.313-.015.627-.029.944-.029 3.563 0 6.977 1.062 10.034 2.955zm-23.26 2.342c.465.741.942 1.349 1.323 1.825.8 1 .903 1.128.903 1.873s-.103.874-.904 1.875c-1.158 1.446-3.096 3.868-3.096 8.122 0 4.255 1.938 6.677 3.096 8.124.801 1.002.904 1.131.904 1.877 0 .745-.103.874-.904 1.875-1.158 1.447-3.096 3.868-3.096 8.123 0 4.256 1.938 6.678 3.096 8.125.801 1.003.904 1.132.904 1.88s-.103.876-.905 1.879c-.381.477-.858 1.086-1.322 1.827-5.905-5.254-9.773-13.917-9.773-23.702 0-9.786 3.868-18.449 9.774-23.703zm-3.586 35.33c.264.656.554 1.305.862 1.931l-1.794.885c-.331-.67-.642-1.367-.924-2.069zm-.697-1.933-1.904.612c-1.053-3.271-1.587-6.738-1.587-10.306 0-3.958.652-7.773 1.938-11.339l1.882.679c-1.208 3.348-1.82 6.934-1.82 10.66 0 3.359.501 6.621 1.491 9.694zm34.74-20.17 1.884-.672c.229.644.441 1.306.629 1.967l-1.924.547c-.177-.626-.374-1.241-.589-1.842zm1.059 3.721 1.955-.423c.144.665.268 1.342.372 2.029l-1.978.299c-.097-.645-.214-1.28-.349-1.905zm-1.769-5.517c-.257-.59-.537-1.175-.832-1.74l1.772-.927c.317.606.618 1.235.894 1.868z" fill="url(#SVGID_1_)"/></svg>